<svg width="300" height="300" xmlns="http://www.w3.org/2000/svg">

 <g>
  <title>background</title>
  <rect fill="none" id="canvas_background" height="302" width="302" y="-1" x="-1"/>
 </g>
 <g>
  <title>Layer 1</title>
  <g transform="rotate(45 150.00000000000006,150) " stroke="null" id="svg_1">
   <g stroke="null" id="svg_2">
    <g stroke="null" id="svg_3">
     <path stroke="null" fill="#b6b8ba" id="svg_4" d="m42.359018,198.697983c-0.007326,0.004396 -0.015385,0.007326 -0.023443,0.012454c-2.950172,1.533328 -4.231486,5.076171 -2.941381,8.142094c1.293768,3.076179 4.736246,4.637345 7.902534,3.583869l89.26706,-29.700253l-16.691512,27.257772c-1.21245,1.980212 -0.95604,4.52599 0.627104,6.224885c1.583144,1.698162 4.104746,2.133325 6.166277,1.061534l17.504695,-9.095936c0.502562,-0.260805 0.958971,-0.602928 1.350911,-1.013183l51.856946,-54.169025l63.998291,-33.39328c24.238003,-13.065884 21.429955,-23.109802 19.992598,-25.876092c-1.114281,-2.145047 -3.605847,-5.021226 -9.14209,-6.5421c-5.615363,-1.542851 -13.202148,-1.419775 -23.188923,0.376555c-3.334053,0.599265 -5.174339,0.548716 -7.12305,0.495236c-6.850523,-0.187545 -11.497392,0.271794 -34.569832,12.260759l-126.191462,65.578505l-48.937543,-25.397706c-1.845414,-0.957506 -4.04101,-0.956773 -5.886425,0.00293l-8.246122,4.285698c-1.697429,0.882048 -2.909879,2.478379 -3.304017,4.350167c-0.394138,1.87252 0.071795,3.822696 1.26886,5.313533l33.966171,42.306799l-7.655649,3.934784z"/>
    </g>
   </g>
  </g>
  <g id="svg_6"/>
  <g id="svg_7"/>
  <g id="svg_8"/>
  <g id="svg_9"/>
  <g id="svg_10"/>
  <g id="svg_11"/>
  <g id="svg_12"/>
  <g id="svg_13"/>
  <g id="svg_14"/>
  <g id="svg_15"/>
  <g id="svg_16"/>
  <g id="svg_17"/>
  <g id="svg_18"/>
  <g id="svg_19"/>
  <g id="svg_20"/>
 </g>
</svg>