<svg xmlns="http://www.w3.org/2000/svg" width="192" height="35" viewBox="0 0 192 35">
    <defs>
        <radialGradient id="a" cx="0%" r="584.92%" fx="0%" fy="50%" gradientTransform="scale(.6386 1)">
            <stop offset="0%" stop-color="#1BFFFF"/>
            <stop offset="100%" stop-color="#1627D2"/>
        </radialGradient>
        <radialGradient id="b" cx="0%" r="561.193%" fx="0%" fy="50%" gradientTransform="scale(.6656 1)">
            <stop offset="0%" stop-color="#1BFFFF"/>
            <stop offset="100%" stop-color="#1627D2"/>
        </radialGradient>
        <radialGradient id="c" cx="0%" r="468.25%" fx="0%" fy="50%" gradientTransform="scale(.79772 1)">
            <stop offset="0%" stop-color="#1BFFFF"/>
            <stop offset="100%" stop-color="#1627D2"/>
        </radialGradient>
        <radialGradient id="d" cx="0%" r="375.124%" fx="0%" fy="50%" gradientTransform="scale(.99575 1)">
            <stop offset="0%" stop-color="#1BFFFF"/>
            <stop offset="100%" stop-color="#1627D2"/>
        </radialGradient>
        <radialGradient id="e" cx="0%" r="375.563%" fx="0%" fy="50%" gradientTransform="scale(.99459 1)">
            <stop offset="0%" stop-color="#1BFFFF"/>
            <stop offset="100%" stop-color="#1627D2"/>
        </radialGradient>
    </defs>
    <g fill="none" fill-rule="evenodd">
        <path fill="#FFF" d="M64.936 17.267c0 2.572 2.036 4.63 4.58 4.63a4.541 4.541 0 0 0 3.224-1.338l3.122 3.155a8.874 8.874 0 0 1-6.345 2.64c-4.954 0-8.992-4.08-8.992-9.087s4.038-9.088 8.992-9.088c2.477 0 4.716 1.029 6.345 2.675l-3.122 3.155a4.433 4.433 0 0 0-3.223-1.372c-2.545 0-4.58 2.058-4.58 4.63zM92.83 8.694l4.105 6.995 4.106-6.995h5.157V25.84h-4.41v-9.636l-2.647 4.492H94.73l-2.647-4.492v9.636h-4.41V8.694h5.157zm41.228 10.802h-11.095a4.55 4.55 0 0 0 4.037 2.4 4.541 4.541 0 0 0 3.224-1.337l3.121 3.155a8.874 8.874 0 0 1-6.345 2.64c-4.953 0-8.991-4.08-8.991-9.087s3.732-9.088 8.38-9.088c5.667 0 8.415 3.567 8.415 7.99 0 1.2-.271 2.298-.746 3.327zm-7.668-6.859c-1.527 0-2.816.96-3.495 2.4h7.295c-.373-1.405-1.323-2.4-3.8-2.4zm31.083 13.203v-6.344h-6.447v6.344h-4.41V8.694h4.41v6.344h6.447V8.694h4.41V25.84h-4.41zm34.204-17.146V25.84h-4.41v-.754a8.915 8.915 0 0 1-4.581 1.269c-4.954 0-8.992-4.081-8.992-9.088 0-5.007 4.038-9.088 8.992-9.088 1.696 0 3.257.48 4.58 1.303v-.788h4.411zm-4.41 8.573c0-2.572-2.036-4.63-4.581-4.63-2.545 0-4.58 2.058-4.58 4.63s2.035 4.63 4.58 4.63 4.58-2.058 4.58-4.63z"/>
        <g transform="translate(0 1)">
            <path fill="#FFF" d="M34.185 25.66c-.011-.006-.011 2.774 0 8.34h-17.25C7.605 34 0 26.366 0 17S7.605 0 16.935 0h17.25v8.34c-17.205-.042-16.193.007-17.25-.002-5.07-.04-8.547 4.21-8.629 8.662-.082 4.453 3.764 8.702 8.63 8.662.06 0 .044.04 17.249-.002z"/>
            <path fill="url(#a)" d="M17.092 25.73c4.848 0 9.655.046 17.093 0 2.126-.013 1.847-17.475.092-17.46-5.358.046-13.812 0-17.185 0-4.847 0-8.777 3.909-8.777 8.73 0 4.821 3.93 8.73 8.777 8.73z" opacity=".4"/>
            <path fill="url(#b)" d="M21.342 25.73h12.843c8.67 0 3.005-17.46 0-17.46H21.342c-4.847 0-8.777 3.909-8.777 8.73 0 4.821 3.93 8.73 8.777 8.73z" opacity=".4"/>
            <path fill="url(#c)" d="M25.685 25.73h8.5c7.008 0 5.219-17.46 0-17.46h-8.5c-4.848 0-8.777 3.909-8.777 8.73 0 4.821 3.93 8.73 8.777 8.73z" opacity=".5"/>
            <path fill="url(#d)" d="M29.935 25.73c3.29 0-.046.046 4.25 0 1.405-.015 4.527-7.181 4.527-8.73 0-3.28-1.458-8.73-4.527-8.73h-4.25c-4.848 0-8.777 3.909-8.777 8.73 0 4.821 3.93 8.73 8.777 8.73z" opacity=".6"/>
            <ellipse cx="34.185" cy="17" fill="url(#e)" rx="8.777" ry="8.73"/>
        </g>
    </g>
</svg>
