<svg xmlns="http://www.w3.org/2000/svg" xmlns:xlink="http://www.w3.org/1999/xlink" width="192" height="35" viewBox="0 0 192 35">
    <defs>
        <radialGradient id="a" cx="198.966%" r="175.621%" fx="198.966%" fy="50%" gradientTransform="matrix(-.99459 0 0 -1 3.969 1)">
            <stop offset="0%" stop-color="#1BFFFF"/>
            <stop offset="100%" stop-color="#1627D2"/>
        </radialGradient>
        <path id="b" d="M17.092 25.73c4.848 0 9.655.046 17.093 0 2.126-.013 1.847-17.475.092-17.46-5.358.046-13.812 0-17.185 0-4.847 0-8.777 3.909-8.777 8.73 0 4.821 3.93 8.73 8.777 8.73z"/>
        <path id="c" d="M21.342 25.73h12.843c8.67 0 3.005-17.46 0-17.46H21.342c-4.847 0-8.777 3.909-8.777 8.73 0 4.821 3.93 8.73 8.777 8.73z"/>
        <path id="d" d="M25.685 25.73h8.5c7.008 0 5.219-17.46 0-17.46h-8.5c-4.848 0-8.777 3.909-8.777 8.73 0 4.821 3.93 8.73 8.777 8.73z"/>
        <path id="e" d="M29.935 25.73c3.29 0-.046.046 4.25 0 1.405-.015 4.527-7.181 4.527-8.73 0-3.28-1.458-8.73-4.527-8.73h-4.25c-4.848 0-8.777 3.909-8.777 8.73 0 4.821 3.93 8.73 8.777 8.73z"/>
        <linearGradient id="g" x1="0%" x2="373.531%" y1="50%" y2="50%">
            <stop offset="0%" stop-color="#1BFFFF"/>
            <stop offset="100%" stop-color="#1627D2"/>
        </linearGradient>
        <ellipse id="f" cx="34.185" cy="17" rx="8.777" ry="8.73"/>
    </defs>
    <g fill="none" fill-rule="evenodd">
        <path fill="url(#a)" d="M34.185 25.66c-.011-.006-.011 2.774 0 8.34h-17.25C7.605 34 0 26.366 0 17S7.605 0 16.935 0h17.25v8.34c-17.205-.042-16.193.007-17.25-.002-5.07-.04-8.547 4.21-8.629 8.662-.082 4.453 3.764 8.702 8.63 8.662.06 0 .044.04 17.249-.002z" transform="translate(0 1)"/>
        <g transform="translate(0 1)">
            <use fill="#1627D2" xlink:href="#b"/>
            <use fill="#1BFFFF" fill-opacity=".3" xlink:href="#b"/>
        </g>
        <g transform="translate(0 1)">
            <use fill="#1627D2" xlink:href="#c"/>
            <use fill="#1BFFFF" fill-opacity=".45" xlink:href="#c"/>
        </g>
        <g transform="translate(0 1)">
            <use fill="#1627D2" xlink:href="#d"/>
            <use fill="#1BFFFF" fill-opacity=".6" xlink:href="#d"/>
        </g>
        <g transform="translate(0 1)">
            <use fill="#1627D2" xlink:href="#e"/>
            <use fill="#1BFFFF" fill-opacity=".75" xlink:href="#e"/>
        </g>
        <g transform="translate(0 1)">
            <use fill="#FFF" xlink:href="#f"/>
            <use fill="url(#g)" xlink:href="#f"/>
        </g>
        <path fill="#303030" d="M65.004 17.285c0 2.575 2.038 4.635 4.585 4.635a4.546 4.546 0 0 0 3.227-1.34l3.125 3.159a8.883 8.883 0 0 1-6.352 2.643c-4.959 0-9-4.085-9-9.097s4.041-9.097 9-9.097c2.48 0 4.721 1.03 6.352 2.677l-3.125 3.159a4.438 4.438 0 0 0-3.227-1.374c-2.547 0-4.585 2.06-4.585 4.635zm27.923-8.582l4.11 7.003 4.11-7.003h5.162v17.164h-4.416v-9.646l-2.649 4.497H94.83l-2.65-4.497v9.646h-4.415V8.703h5.163zm41.27 10.813h-11.106a4.555 4.555 0 0 0 4.042 2.404 4.546 4.546 0 0 0 3.227-1.34l3.124 3.159a8.883 8.883 0 0 1-6.351 2.643c-4.96 0-9-4.085-9-9.097s3.735-9.097 8.388-9.097c5.673 0 8.424 3.57 8.424 7.998 0 1.202-.272 2.3-.747 3.33zm-7.676-6.866c-1.528 0-2.819.962-3.498 2.404h7.303c-.374-1.408-1.325-2.404-3.805-2.404zm31.116 13.217v-6.35h-6.454v6.35h-4.415V8.703h4.415v6.35h6.454v-6.35h4.415v17.164h-4.415zm34.24-17.164v17.164h-4.415v-.755a8.924 8.924 0 0 1-4.586 1.27c-4.959 0-9-4.085-9-9.097s4.041-9.097 9-9.097c1.699 0 3.261.48 4.586 1.304v-.79h4.415zm-4.415 8.582c0-2.575-2.038-4.635-4.586-4.635-2.547 0-4.585 2.06-4.585 4.635 0 2.575 2.038 4.635 4.585 4.635 2.548 0 4.586-2.06 4.586-4.635z"/>
    </g>
</svg>
